PathFileType	4	(X/Y/Z)	D:\Long Term Storage\D'Arcy Smith\Coord6.trc
DataRate	CameraRate	NumFrames	NumMarkers	Units	OrigDataRate	OrigDataStartFrame	OrigNumFrames
120.00	120.00	      97	4	mm	120.00	3648	      4863
Frame#	Time	M1			M2			M3			M4			
		X1	Y1	Z1	X2	Y2	Z2	X3	Y3	Z3	X4	Y4	Z4	

3648	30.392	1122.04041	368.13083	293.36804	1628.56567	392.08054	284.76187							
3649	30.400	1121.68298	369.43359	291.84998	1630.75537	389.77823	287.70847							
3650	30.408	1120.38440	370.19696	291.24509	1634.05981	386.95197	292.07855							
3651	30.417	1117.99805	370.76553	291.58548	1636.05859	383.33792	296.35654							
3652	30.425	1116.39063	370.15799	292.17850	1638.04407	379.75534	300.89502							
3653	30.433	1114.23938	369.92859	293.69864	1640.25928	375.38681	306.25537							
3654	30.442	1111.44519	368.31924	295.59552	1642.33813	371.16357	312.80038							
3655	30.450	1108.44519	366.58499	298.39819	1644.40674	366.30640	319.30652							
3656	30.458	1105.27185	364.80414	301.63901	1646.34375	361.46158	326.75372							
3657	30.467	1102.55969	361.77060	304.94046	1648.42456	356.37009	334.68692							
3658	30.475	1099.47693	359.45816	309.28784	1650.25732	351.33618	343.17227							
3659	30.483	1096.14514	356.15891	314.01950	1651.95508	346.15558	352.22098							
3660	30.492	1092.89966	352.90005	319.25681	1653.30859	341.00226	361.93210							
3661	30.500	1089.27600	349.54050	325.07516	1654.78174	336.27655	371.79773							
3662	30.508	1086.15955	346.16974	331.38052	1655.92871	331.71579	383.10721							
3663	30.517	1082.49060	342.44308	338.32690	1656.77881	327.17984	393.52667							
3664	30.525	1079.28479	338.80090	345.63892	1657.51733	322.86722	404.39810							
3665	30.533	1076.63257	335.15338	353.27258	1657.80640	319.54047	416.85867							
3666	30.542	1073.50635	331.59134	361.23776	1657.91980	315.85281	428.33475							
3667	30.550	1070.32434	328.13690	369.85422	1657.71240	312.70740	440.85522							
3668	30.558	1067.76477	324.55673	378.82516	1657.58765	309.69943	453.50519							
3669	30.567	1064.90161	321.28360	388.39130	1657.12317	306.84970	466.28271							
3670	30.575	1062.50391	318.07413	397.88251	1656.86462	304.60544	479.39856							
3671	30.583	1059.76282	315.13199	408.20786	1656.22144	302.79163	492.48120							
3672	30.592	1057.46716	312.40527	418.75400	1655.85193	301.25931	506.22495							
3673	30.600	1055.63196	310.13205	429.38416	1654.68469	300.22733	520.08246							
3674	30.608	1053.59656	308.01059	440.85184	1653.46619	299.52689	533.25183							
3675	30.617	1051.31812	306.73721	451.71271	1652.01196	300.25323	547.37665							
3676	30.625	1049.47656	305.27979	463.29050	1650.69739	301.42715	560.84210							
3677	30.633	1047.73694	304.50250	474.94379	1648.42493	303.13318	574.10693							
3678	30.642	1046.28760	303.85858	486.80545	1646.64771	304.88217	585.92407							
3679	30.650	1044.75928	303.62866	498.65576	1644.72253	308.65695	598.51160							
3680	30.658	1043.66943	303.29651	510.90225	1642.57336	312.11255	610.16425							
3681	30.667	1041.76135	304.29239	522.23981	1640.11780	315.62646	621.01782							
3682	30.675	1040.78821	304.69656	533.68494	1638.04614	319.56927	631.14539							
3683	30.683	1039.84424	305.76367	545.98352	1635.87500	323.33658	640.76575							
3684	30.692	1038.56506	307.17902	557.44934	1633.85742	327.10251	649.58215							
3685	30.700	1037.59033	308.51395	568.74280	1632.02710	330.76550	657.69159							
3686	30.708	1036.50549	310.61496	579.86493	1630.49512	334.07172	665.04272							
3687	30.717	1035.32056	312.86093	590.75848	1628.40161	336.85126	672.01776							
3688	30.725	1034.39319	315.81799	601.46466	1627.20728	339.65259	678.11462							
3689	30.733	1033.19910	318.88419	611.68427	1626.19727	342.13898	683.57019							
3690	30.742	1032.19604	322.34055	621.78955	1625.20520	344.29523	688.42676							
3691	30.750	1030.78662	326.99408	631.44189	1624.24683	346.29858	692.57202							
3692	30.758	1029.38245	330.77649	640.58264	1623.68311	347.70724	695.97034							
3693	30.767	1028.05676	335.14850	649.52325	1623.11462	349.42545	698.85529							
3694	30.775	1026.97205	339.60175	657.90753	1622.60022	350.59131	700.88141							
3695	30.783	1025.37036	344.29025	665.81311	1622.06970	351.43643	702.29218							
3696	30.792	1023.90363	348.95688	673.10626	1621.87195	352.16849	703.06708							
3697	30.800	1022.15540	353.48334	679.88855	1621.89136	352.55731	703.24292							
3698	30.808	1020.87000	358.19766	686.28998	1621.83118	352.45895	702.53278							
3699	30.817	1019.15485	362.68518	692.11188	1622.07312	352.07211	701.29541							
3700	30.825	1017.59631	367.10641	697.21960	1622.52063	351.24326	699.26807							
3701	30.833	1015.90936	371.19641	701.79163	1622.92236	350.50720	696.65881							
3702	30.842	1014.46057	375.11331	705.61108	1623.51501	348.78430	693.26996							
3703	30.850	1012.83789	378.63907	708.80615	1623.95850	347.21286	688.96796							
3704	30.858	1011.42761	381.89182	711.31378	1624.84717	345.03543	683.83405							
3705	30.867	1009.97760	384.34500	713.02917	1625.51746	342.17795	677.90326							
3706	30.875	1008.38336	386.57785	714.24292	1626.24512	339.54141	671.14020							
3707	30.883	1007.19720	388.13654	714.57776	1627.44006	336.52850	663.45050							
3708	30.892	1006.20111	388.84839	714.33069	1627.76709	332.93268	654.88507							
3709	30.900	1004.73303	389.66620	713.44086	1628.56995	329.51932	645.71509							
3710	30.908	1003.64209	389.70850	711.87604	1629.14929	325.90085	635.56104							
3711	30.917	1003.06726	389.03638	709.82037	1628.97754	322.34583	624.95020							
3712	30.925	1002.16901	387.77127	706.74878	1629.75952	318.79459	613.04651							
3713	30.933	1001.65161	386.07745	703.51337	1629.52283	315.51694	600.67310							
3714	30.942	1001.42004	384.04611	699.43256	1629.71545	312.70728	587.97614							
3715	30.950	1001.17401	381.25061	694.82745	1629.01624	309.35742	574.39105							
3716	30.958	1001.44916	378.21234	689.68225	1628.66406	306.94330	560.27441							
3717	30.967	1001.73285	375.08051	683.84064	1628.08203	305.21542	545.98022							
3718	30.975	1002.20142	371.55786	677.65863	1627.54846	304.35226	531.89008							
3719	30.983	1003.26776	367.75729	670.87793	1626.80005	303.52710	517.21808							
3720	30.992	1004.54181	363.97385	663.72607	1625.74353	303.12411	501.61975							
3721	31.000	1006.05042	359.83990	655.81476	1624.52808	303.65567	486.79092							
3722	31.008	1008.10614	355.96317	647.87732	1623.10461	305.17981	472.18591							
3723	31.017	1010.22626	351.77661	638.81635	1621.87659	307.07690	457.85062							
3724	31.025	1013.16321	346.63608	629.01703	1621.43701	308.35260	443.00702							
3725	31.033	1016.46240	342.81277	619.02924	1619.76978	311.40643	428.58560							
3726	31.042	1019.64209	338.42334	608.13983	1617.95105	314.88028	414.92169							
3727	31.050	1023.15540	334.33511	596.67786	1616.55518	318.90408	401.67075							
3728	31.058	1027.30969	330.59885	584.44049	1615.16101	323.16736	389.68616							
3729	31.067	1031.71326	327.04221	571.72144	1612.70447	328.30862	376.35056							
3730	31.075	1036.32178	324.07416	558.34833	1610.77820	333.80612	365.46344							
3731	31.083	1041.25623	321.27155	544.41669	1609.57690	339.29211	354.30310							
3732	31.092	1046.38892	319.00681	529.84802	1607.79138	345.11325	343.25034							
3733	31.100	1051.27783	317.68011	514.33423	1606.01013	350.48923	332.96399							
3734	31.108	1056.70752	316.53122	499.28467	1604.67407	356.93741	324.27673							
3735	31.117	1062.35730	316.00818	483.60513	1603.58020	362.63071	315.26294							
3736	31.125	1068.04175	315.74164	467.91052	1602.54578	368.35110	307.03568							
3737	31.133	1073.92273	316.20920	452.14093	1601.03748	374.10736	299.60446							
3738	31.142	1079.64856	316.82339	436.84604	1600.45020	379.23239	292.73279							
3739	31.150	1085.64246	318.61206	421.15262	1600.36047	384.29617	286.86734							
3740	31.158	1090.90625	320.88635	405.99661	1600.35583	388.66089	281.89456							
3741	31.167	1096.38159	323.96759	391.48096	1600.87708	392.54892	277.82220							
3742	31.175	1101.55298	327.24228	376.77182	1601.17383	395.85391	274.48517							
3743	31.183	1106.37878	331.12589	363.26019	1602.78040	398.73074	272.44250							
3744	31.192	1110.81726	335.54810	350.84039	1603.99500	400.46597	271.10199							
